<svg width="310" height="306" viewBox="0 0 310 306" fill="none" xmlns="http://www.w3.org/2000/svg">
<path opacity="0.18" d="M307.558 168.677C306.758 172.707 305.687 176.678 304.353 180.564C301.956 187.565 298.792 194.302 296.785 201.418C291.225 221.168 293.979 244.911 279.495 259.458C275.574 263.389 270.697 266.227 265.757 268.75C244.599 279.534 221.412 282.876 199.003 289.855C174.702 297.423 150.055 305.348 124.377 305.979C105.395 306.32 86.5516 302.688 69.0567 295.316C51.5619 287.943 35.8023 276.993 22.7902 263.169C14.1188 253.824 6.66669 243.019 3.10354 230.774C1.72464 225.914 0.889176 220.915 0.612491 215.87C-0.0812195 204.13 1.7897 192.116 4.039 180.491C8.61118 156.852 15.254 132.425 31.6508 114.799C46.492 98.8747 69.1427 88.364 75.5017 67.5001C78.245 58.4083 77.3411 48.5807 79.6009 39.3417C84.3833 19.8548 102.998 6.07514 122.569 1.6396C148.709 -4.27797 173.378 6.61119 194.126 21.7677C216.588 38.1015 243.695 46.0266 266.146 62.2972C298.74 85.9675 315.494 129.472 307.558 168.677Z" fill="#00BCD4"/>
<path opacity="0.37" d="M307.559 168.677C306.758 172.707 305.687 176.678 304.353 180.564C301.956 187.565 298.793 194.302 296.785 201.418C291.225 221.168 293.979 244.911 279.495 259.458C275.574 263.389 270.697 266.227 265.757 268.75C244.599 279.534 221.412 282.876 199.003 289.855C174.702 297.423 150.055 305.348 124.377 305.979C105.395 306.32 86.5516 302.688 69.0568 295.316C51.5619 287.943 35.8024 276.993 22.7903 263.169C14.1189 253.825 6.66675 243.019 3.1036 230.774C1.72469 225.914 0.889234 220.915 0.612549 215.87C3.33238 214.727 5.96075 213.378 8.4746 211.834C27.0997 199.967 41.8148 180.375 64.3604 175.666C76.3216 173.165 88.7453 175.53 100.559 178.662C119.027 183.56 137.021 190.35 155.815 193.819C174.608 197.287 194.767 197.182 211.921 188.763C219.531 185.021 226.31 179.766 233.815 175.835C256.129 164.105 282.186 165.093 307.559 168.677Z" fill="#00BCD4"/>
<path d="M103.592 242.006H103.372C94.3017 241.25 85.4387 239.917 76.3037 240.994C73.3494 241.34 70.2136 241.994 68.1534 244.109C66.0931 246.224 65.8469 250.261 68.3866 251.799L50.5052 263.528C48.445 264.874 46.1645 266.579 46.009 269.014C45.8146 271.975 48.8078 274.142 51.5937 275.231C64.0977 280.282 78.325 277.551 91.3344 273.949C104.344 270.348 117.664 265.848 131.049 267.643C136.116 268.322 141.026 269.886 146.106 270.591C151.668 271.176 157.273 271.237 162.847 270.771C187.92 269.489 213.524 268.04 236.796 258.76C240.652 257.315 244.322 255.427 247.732 253.133C250.111 251.381 252.366 249.471 254.483 247.416L262.257 240.289C264.343 238.366 266.416 236.443 268.399 234.418C276.378 226.306 282.673 216.725 286.928 206.218C287.835 204 288.6 201.372 287.33 199.347C286.644 198.372 285.722 197.584 284.648 197.053C276.274 192.225 266.548 190.202 256.919 191.284C253.057 191.622 249.312 192.767 245.931 194.643C243.038 196.569 240.355 198.785 237.923 201.257C217.916 219.767 191.677 229.919 166.112 239.712C158.156 242.737 149.786 245.826 141.337 244.749C135.325 243.993 129.676 241.148 123.728 240.302C116.589 239.238 110.499 242.493 103.592 242.006Z" fill="url(#paint0_linear)"/>
<path d="M246.5 122.761C244.203 123.363 241.831 123.623 239.459 123.531C237.233 123.087 235.106 122.238 233.182 121.025C228.006 118.192 222.453 115.516 216.552 115.059C210.65 114.603 204.179 116.769 201.021 121.821C199.481 124.262 198.834 127.147 197.747 129.823C195.659 134.448 192.751 138.651 189.167 142.223C176.988 155.368 161.911 165.524 149.823 178.773C148.522 180.366 147.011 181.771 145.332 182.95C143.972 183.725 142.525 184.334 141.022 184.764C122.599 190.73 103.348 193.682 84 193.51C89.0862 197.335 95.9066 197.426 102.119 199.084C111.851 201.694 120.095 208.221 129.595 211.615C138.072 214.643 147.235 215.048 156.229 214.996C168.26 214.929 180.275 214.123 192.208 212.581C194.1 212.397 195.958 211.958 197.734 211.276C199.887 210.196 201.846 208.762 203.532 207.033C213.782 197.596 224.149 188.054 231.836 176.397C234.36 172.559 236.586 168.565 239.369 164.884C244.015 158.814 250.123 153.958 254.459 147.667C256.449 144.51 258.26 141.241 259.882 137.877C261.331 135.162 265.162 131.285 265.861 128.53C267.686 121.56 251.042 121.991 246.5 122.761Z" fill="#00BCD4"/>
<path d="M207.591 183.201C207.831 182.365 208.349 181.634 209.059 181.125C209.889 180.811 210.796 180.757 211.658 180.971C215.041 181.445 218.487 180.821 221.482 179.192C222.964 178.367 224.256 177.244 225.274 175.894C226.293 174.544 227.015 172.998 227.394 171.355C227.615 170.246 227.667 169.112 227.992 168.042C228.643 166.486 229.519 165.031 230.591 163.724C233.14 160.062 234.835 155.883 235.555 151.491C236.257 147.289 236.127 142.726 238.505 139.181C239.336 137.957 240.441 136.913 241.207 135.637C241.641 135.028 241.907 134.319 241.98 133.577C242.052 132.836 241.93 132.089 241.623 131.409C241.21 130.74 240.65 130.171 239.986 129.746C235.794 126.81 230.822 125.164 225.692 125.015C224.978 124.964 224.26 125.042 223.574 125.247C222.625 125.663 221.808 126.327 221.209 127.168C217.792 131.331 215.868 136.487 213.075 141.076C206.915 151.233 196.689 158.491 190.633 168.699C188.82 171.905 187.29 175.26 186.059 178.728C184.047 184.192 182.431 189.792 181.225 195.485C181.054 196.159 180.98 196.853 181.005 197.547C181.274 198.994 182.075 200.289 183.253 201.182C185.626 203.201 188.528 204.511 191.621 204.959C194.415 205.294 196.013 203.515 197.702 201.505C202.159 196.117 204.979 189.607 207.591 183.201Z" fill="url(#paint1_linear)"/>
<path d="M198.25 96.1023C193.994 95.4499 190.138 93.2971 186.076 91.8879C183.779 90.8826 181.205 90.7255 178.805 91.4443C177.243 92.1562 176.025 93.4644 175.418 95.0815C174.812 96.6986 174.867 98.4924 175.571 100.069L175.661 100.278C176.76 101.943 178.249 103.309 179.995 104.257C190.317 110.86 201.372 116.216 212.934 120.214C216.862 121.633 220.899 122.72 225.005 123.463C228.556 124.089 232.181 124.168 235.756 123.698C240.592 122.904 245.218 121.128 249.353 118.479C251.261 117.543 252.795 115.978 253.7 114.043C254.658 111.277 253.157 108.302 251.501 105.901C249.034 102.133 245.829 98.9144 242.083 96.4415C238.422 94.3787 234.506 92.8125 230.439 91.7835C227.424 90.8702 226.208 91.64 223.608 92.6447C221.007 93.6493 217.941 93.2971 215.341 93.8451C209.752 94.9802 204.059 96.9765 198.25 96.1023Z" fill="#00BCD4"/>
<path d="M198.25 96.1023C193.994 95.4499 190.138 93.2971 186.076 91.8879C183.779 90.8826 181.205 90.7255 178.805 91.4443C177.243 92.1562 176.025 93.4644 175.418 95.0815C174.812 96.6986 174.867 98.4924 175.571 100.069L175.661 100.278C176.76 101.943 178.249 103.309 179.995 104.257C190.317 110.86 201.372 116.216 212.934 120.214C216.862 121.633 220.899 122.72 225.005 123.463C228.556 124.089 232.181 124.168 235.756 123.698C240.592 122.904 245.218 121.128 249.353 118.479C251.261 117.543 252.795 115.978 253.7 114.043C254.658 111.277 253.157 108.302 251.501 105.901C249.034 102.133 245.829 98.9144 242.083 96.4415C238.422 94.3787 234.506 92.8125 230.439 91.7835C227.424 90.8702 226.208 91.64 223.608 92.6447C221.007 93.6493 217.941 93.2971 215.341 93.8451C209.752 94.9802 204.059 96.9765 198.25 96.1023Z" fill="url(#paint2_linear)"/>
<path d="M220.533 102.498C222.814 103.841 224.831 105.582 226.488 107.637C227.316 108.66 227.901 109.856 228.2 111.135C228.498 112.414 228.501 113.743 228.209 115.024C227.718 116.732 226.552 118.21 226.268 119.957C225.853 122.449 227.303 124.851 228.857 126.83C230.41 128.808 232.261 130.684 232.844 133.253C233.164 134.766 232.99 136.341 232.347 137.75C231.705 139.159 230.628 140.328 229.271 141.089C225.594 143.055 221.064 141.487 217.297 139.702C213.53 137.916 209.426 135.848 205.387 136.901C203.109 137.505 201.206 139.034 199.096 140.061C195.355 141.818 191.098 142.161 187.121 141.025C183.165 139.858 179.632 137.583 176.946 134.473C174.873 132.298 173.518 129.546 173.063 126.586C172.878 125.109 173.103 123.61 173.715 122.252C174.326 120.893 175.301 119.726 176.532 118.878C179.121 117.285 182.461 117.696 185.516 118.004C188.571 118.312 191.989 118.364 194.267 116.308C196.856 114.022 196.856 110.142 198.151 107.008C199.226 104.595 201.086 102.611 203.434 101.374C205.782 100.137 208.48 99.7188 211.096 100.186C213.245 100.636 215.277 101.689 217.465 101.83C219.653 101.972 222.125 101.188 224.132 102.203" fill="#473F47"/>
<path d="M95.5123 252.099L96.3262 252.579C96.9785 252.955 97.7433 253.085 98.4825 252.945C99.2217 252.804 99.8866 252.403 100.357 251.813L200.312 126.085C200.83 125.436 201.071 124.607 200.982 123.78C200.892 122.953 200.479 122.195 199.834 121.673V121.673C199.188 121.162 198.367 120.927 197.55 121.02C196.732 121.112 195.984 121.524 195.467 122.167L94.6984 247.428C94.1769 248.074 93.9317 248.9 94.0164 249.727C94.1012 250.554 94.5091 251.314 95.1506 251.839C95.2661 251.933 95.3869 252.019 95.5123 252.099V252.099Z" fill="#473F47"/>
<path d="M186.518 243.361L187.912 241.314C188.338 240.355 187.137 238.411 186.156 237.912L85.7436 186.266C85.2111 185.994 84.5962 185.928 84.0172 186.079C83.4383 186.23 82.9361 186.588 82.6074 187.084L80.31 189.425C80.171 189.64 80.0761 189.88 80.0307 190.131C79.9853 190.382 79.9903 190.64 80.0454 190.889C80.1006 191.139 80.2047 191.375 80.352 191.585C80.4993 191.794 80.6867 191.973 80.9037 192.111L81.0973 192.226L180.826 243.246C182.013 243.821 185.989 244.55 186.518 243.361Z" fill="#473F47"/>
<path d="M217.664 129.77C219.371 133.968 224.902 135.037 227.802 138.5C230.228 141.385 230.485 145.634 229.355 149.24C226.121 159.541 216.779 164.692 208.398 170.28C202.996 173.847 197.708 178.238 195.424 184.303C194.141 187.754 193.691 191.875 190.804 194.154C188.873 195.45 186.579 196.091 184.259 195.983C183.148 196.043 182.033 195.947 180.948 195.699C179.014 195.077 177.218 194.084 175.661 192.776L169.244 188.025C167.3 186.781 165.209 185.786 163.02 185.063C160.902 184.175 158.618 183.131 157.566 181.084C156.282 178.509 157.373 175.302 158.939 172.843C164.149 164.666 173.517 159.837 178.689 151.622C179.097 151.076 179.354 150.432 179.434 149.755C179.431 149.194 179.323 148.639 179.113 148.119C177.675 143.419 177.74 133.826 184.246 132.951C185.305 132.86 186.37 132.86 187.429 132.951C192.626 133.144 198.145 131.985 201.969 128.431C202.444 127.993 202.457 127.517 202.739 127.014C203.021 126.512 203.509 126.126 203.791 125.624C204.357 124.535 204.723 123.353 204.869 122.134C205.012 120.232 205.265 118.34 205.626 116.468C206.833 112.064 212.646 107.094 216.458 112.09C220.269 117.086 215.405 124.22 217.664 129.77Z" fill="#FFB79C"/>
<path d="M191.689 143.595C191.855 143.497 192.056 143.338 191.985 143.142C191.953 143.065 191.894 143.004 191.82 142.97C191.501 142.814 191.155 142.726 190.803 142.713C190.451 142.701 190.1 142.763 189.772 142.897C189.114 143.158 188.437 143.363 187.747 143.509C186.821 143.581 185.897 143.336 185.119 142.811C184.355 142.283 183.645 141.676 183 141C183.163 142.085 183.533 143.125 184.089 144.06C184.622 145.198 185.273 150.277 187.274 148.698C188.031 148.099 188.386 146.765 188.99 145.981C189.734 145.015 190.65 144.204 191.689 143.595V143.595Z" fill="#EA967D"/>
<path d="M183.157 174.705C180.947 174.81 178.66 175.154 176.577 174.414C175.746 174.086 174.95 173.669 174.201 173.172C169.91 170.477 165.831 167.438 162 164.082C164.108 162.669 166.919 162.986 169.155 161.81C169.774 161.37 170.467 161.052 171.199 160.872C172.307 160.932 173.359 161.401 174.163 162.193C175.968 163.498 178.018 164.398 180.18 164.835C179.558 163.496 179.062 162.098 178.698 160.66C178.378 159.588 178.303 158.452 178.481 157.344C178.737 156.488 179.191 155.708 179.803 155.073C180.415 154.438 181.167 153.966 181.994 153.698C183.65 153.184 185.377 152.957 187.105 153.024C187.97 152.945 188.842 153.062 189.66 153.368C190.361 153.759 190.972 154.305 191.448 154.966C194.913 159.262 199.014 162.963 203.598 165.932C204.234 166.259 204.82 166.682 205.336 167.187C205.595 167.44 205.788 167.757 205.898 168.108C206.007 168.459 206.029 168.833 205.962 169.195C205.821 169.598 205.609 169.97 205.336 170.292C203.828 172.3 202.372 174.348 200.813 176.33C199.459 178.047 198.654 178.417 196.699 177.545C192.45 175.553 187.821 174.582 183.157 174.705V174.705Z" fill="#EA967D"/>
<path d="M110.434 167.564L79.6674 235.456L68.9853 247.394C68.9853 247.394 64.8599 249.833 66.3083 251.286C67.7567 252.74 76.5119 253.466 77.4819 253.35C78.4518 253.233 85.9784 255.296 87.6726 252.623C89.3667 249.95 89.0951 249.21 89.0951 249.21C89.0951 249.21 90.1038 236.662 90.8281 234.846C91.5523 233.029 100.191 215.758 107.886 208.802C115.581 201.847 121.905 188.741 121.905 188.741C121.905 188.741 163.573 202.353 178.703 201.328C193.834 200.303 195.515 185.938 186.463 180.826C179.609 176.933 141.2 166.241 123.327 161.362C120.794 160.696 118.108 160.954 115.747 162.09C113.385 163.226 111.503 165.166 110.434 167.564V167.564Z" fill="#EA967D"/>
<path d="M205.014 120.496C205.014 120.496 202.42 128.621 205.53 128.992C208.641 129.364 218.158 115.996 217.998 113.434C217.838 110.872 205.014 120.496 205.014 120.496Z" fill="#EA967D"/>
<path d="M207.033 122.54L207.527 122.363C209.411 121.67 210.106 120.295 211.535 119.071C212.965 117.848 214.595 117.104 216.024 116.07C217.086 115.405 217.969 114.515 218.603 113.471C219.197 113.779 219.881 113.897 220.553 113.808C221.224 113.719 221.847 113.429 222.33 112.979C222.851 112.617 223.274 112.144 223.564 111.598C223.854 111.053 224.004 110.45 224 109.839C223.962 109.255 223.681 108.71 223.217 108.322C222.754 107.934 222.147 107.736 221.528 107.77H221.328C221.528 105.911 221.248 104.033 220.513 102.297C220.014 101.373 219.308 100.564 218.442 99.9255C216.801 98.7278 214.913 97.8685 212.898 97.403C211.761 97.0546 210.561 96.9301 209.371 97.0372C207.339 97.5018 205.393 98.2545 203.6 99.2696C201.743 100.228 200.741 102.461 199.886 104.189C197.575 108.837 196.625 113.984 197.134 119.097C197.151 120.071 197.492 121.015 198.109 121.796C199.081 122.577 200.333 122.979 201.609 122.918C203.427 123.103 205.264 122.974 207.033 122.54Z" fill="#FFB79C"/>
<path d="M211.227 104.799C212.779 105.368 214.373 105.826 215.995 106.168L215.821 105.548C216.377 105.757 216.878 106.084 217.287 106.504C217.696 106.924 218.003 107.427 218.185 107.977C218.375 108.974 218.477 109.986 218.492 111C219.109 110.496 219.673 109.933 220.175 109.32C220.504 108.862 220.905 108.457 221.364 108.119C221.595 107.949 221.873 107.849 222.162 107.831C222.452 107.812 222.741 107.877 222.993 108.016C223.043 106.296 222.823 104.58 222.339 102.925C221.857 101.256 220.854 99.7716 219.467 98.6748C217.821 97.6226 216.02 96.8168 214.125 96.2847C213.307 96.1299 212.475 96.052 211.641 96.0521C210.381 95.9358 209.109 96.0143 207.875 96.2847C207.111 96.5204 206.373 96.8276 205.671 97.2019C204.99 97.5508 203 98.1322 203 99.114C203 100.096 204.683 100.962 205.297 101.452C207.074 102.87 209.077 104 211.227 104.799V104.799Z" fill="#473F47"/>
<path d="M172.98 173.377C169.527 171.487 166.113 169.571 162.737 167.629C153.854 162.581 144.919 157.61 135.842 152.936C131.88 150.891 127.891 148.884 123.799 147.124C121.87 146.295 119.151 144.781 116.949 145.027H116.768C111.666 146.489 67.9109 213.184 67.9109 213.184C67.9109 213.184 47.6844 225.392 44.3953 223.204C43.3335 223.32 43.0098 222.337 42.1681 221.689C41.3264 221.042 40.0056 220.576 39.2934 221.379C38.5812 222.181 39.2934 223.541 40.0703 224.317C41.2967 225.522 42.7371 226.488 44.3177 227.165C44.6746 227.278 44.9871 227.5 45.2111 227.8C45.3265 228.011 45.3929 228.245 45.4054 228.486C45.6279 229.235 46.0506 229.909 46.6278 230.436C47.2051 230.963 47.9151 231.322 48.6815 231.476C50.2257 231.722 51.799 231.722 53.3432 231.476C58.0072 231.079 62.7005 231.187 67.3412 231.8C68.4848 232.019 69.6557 232.059 70.8115 231.916C71.7488 231.695 72.6232 231.263 73.3682 230.652C74.1131 230.042 74.7091 229.27 75.1106 228.395C75.9021 226.636 76.2745 224.717 76.1984 222.79C76.0288 220.891 76.1599 218.977 76.5868 217.12C76.5868 217.12 111.912 186.892 113.854 177.662C114.648 173.24 115.866 168.905 117.493 164.717C122.608 169.895 127.956 175.073 133.433 179.876C137.718 183.76 142.205 187.415 146.875 190.827C148.864 192.271 150.935 193.598 153.077 194.802C154.966 195.977 157.146 196.601 159.371 196.601C165.366 196.601 170.753 200.148 176.683 200.627C178.063 200.731 179.448 200.731 180.827 200.627C182.281 200.59 183.72 200.319 185.087 199.824C188.351 198.53 190.163 195.022 191.704 191.824C192.571 190.383 193.019 188.729 192.999 187.047C192.783 185.576 192.026 184.237 190.876 183.293C189.751 182.35 188.511 181.554 187.185 180.924C182.394 178.482 177.659 175.966 172.98 173.377Z" fill="#FFB79C"/>
<path d="M167.554 252.099L168.368 252.579C169.02 252.955 169.785 253.085 170.524 252.945C171.262 252.804 171.927 252.403 172.397 251.813L272.302 126.086C272.561 125.766 272.754 125.398 272.871 125.003C272.988 124.608 273.026 124.193 272.983 123.783C272.939 123.373 272.816 122.976 272.619 122.614C272.423 122.252 272.157 121.933 271.837 121.675V121.675C271.189 121.163 270.366 120.927 269.547 121.02C268.728 121.112 267.978 121.524 267.459 122.168L166.689 247.467C166.431 247.789 166.239 248.16 166.124 248.557C166.009 248.954 165.974 249.37 166.019 249.782C166.065 250.193 166.191 250.591 166.39 250.953C166.589 251.315 166.858 251.634 167.18 251.891C167.299 251.971 167.424 252.041 167.554 252.099Z" fill="#473F47"/>
<path d="M214.273 138.94C213.493 140.625 212.461 142.179 211.215 143.545C210.682 144.133 210.063 144.635 209.38 145.032C208.689 145.375 207.968 145.652 207.226 145.86C206.258 146.183 205.302 146.571 204.334 146.907C198.732 148.877 192.758 149.505 186.877 148.744C186.68 148.741 186.488 148.676 186.328 148.558C186.168 148.44 186.048 148.274 185.985 148.084C183.653 143.131 181.296 137.918 181.564 132.435C180.597 132.932 179.811 133.729 179.321 134.711C178.057 137.328 177.308 140.171 177.117 143.079C176.914 144.004 176.976 144.969 177.295 145.86C177.65 146.757 177.931 147.683 178.136 148.627C178.504 149.689 179.042 150.681 179.729 151.563C181.207 153.426 183.832 154.68 185.947 153.659C186.917 155.197 188.188 156.518 189.68 157.539C192.71 159.571 196.015 161.144 199.492 162.208C202.754 163.411 206.156 163.255 209.571 163.98C212.247 164.549 215.024 165.48 217.649 164.704C218.337 164.497 219.115 163.734 218.643 163.178C218.48 163.019 218.277 162.908 218.057 162.854C216.548 162.317 215.221 161.352 214.234 160.074C211.278 156.194 211.508 148.951 213.075 144.553C214.833 139.6 218.605 135.332 219 129.913C219 129.46 218.694 127.572 217.904 128.089C217.611 128.283 217.522 130.042 217.407 130.469C217.165 131.348 216.872 132.202 216.579 133.055C215.931 135.064 215.161 137.029 214.273 138.94V138.94Z" fill="#00BCD4"/>
<path d="M163 168.397C163 168.397 178.712 181.462 195.685 184L197 181.511C197 181.511 167.707 172.13 165.774 165L163 168.397Z" fill="#00BCD4"/>
<path d="M110.56 167.252L79.7064 235.389L68.9938 247.37C68.9938 247.37 64.8566 249.818 66.3092 251.277C67.7617 252.735 76.5419 253.465 77.5146 253.347C78.4873 253.23 86.0354 255.301 87.7344 252.618C89.4334 249.935 89.161 249.193 89.161 249.193C89.161 249.193 90.1726 236.6 90.8989 234.777C91.6252 232.953 100.289 215.62 108.005 208.639C115.722 201.659 122.064 188.506 122.064 188.506C122.064 188.506 163.981 200.292 179.129 199.263C194.277 198.234 160.699 199.445 151.686 194.301C144.812 190.394 133.84 176.837 119.73 163.814C115.748 160.22 112.752 162.278 110.56 167.252Z" fill="#EA967D"/>
<path d="M137.739 195.633C133.149 195.633 128.546 194.912 123.968 195.384C119.391 195.855 114.723 197.649 112 201.433L115.89 203.777C122.801 207.955 129.907 212.21 137.83 213.677C140.872 214.165 143.943 214.445 147.023 214.515C163.115 215.209 179.544 215.824 195 211.346C194.209 211.569 189.347 207.208 188.517 206.606C186.286 205.1 184.004 203.659 181.683 202.311C177.035 199.595 172.209 197.202 167.238 195.148C163.076 193.42 158.68 190.984 154.207 192.451C148.592 194.271 143.717 195.724 137.739 195.633Z" fill="#00BCD4"/>
<path d="M137.739 195.633C133.149 195.633 128.546 194.912 123.968 195.384C119.391 195.855 114.723 197.649 112 201.433L115.89 203.777C122.801 207.955 129.907 212.21 137.83 213.677C140.872 214.165 143.943 214.445 147.023 214.515C163.115 215.209 179.544 215.824 195 211.346C194.209 211.569 189.347 207.208 188.517 206.606C186.286 205.1 184.004 203.659 181.683 202.311C177.035 199.595 172.209 197.202 167.238 195.148C163.076 193.42 158.68 190.984 154.207 192.451C148.592 194.271 143.717 195.724 137.739 195.633Z" fill="url(#paint3_linear)"/>
<path d="M258.517 243.363L259.912 241.316C260.338 240.357 259.137 238.413 258.156 237.914L157.696 186.262C157.162 185.994 156.548 185.929 155.97 186.08C155.391 186.231 154.889 186.587 154.558 187.08L152.299 189.383C152.023 189.823 151.934 190.353 152.05 190.858C152.166 191.364 152.478 191.803 152.919 192.082L153.099 192.184L252.914 243.209C254.011 243.823 257.975 244.553 258.517 243.363Z" fill="#473F47"/>
<path d="M199 111C200.657 111 202 109.657 202 108C202 106.343 200.657 105 199 105C197.343 105 196 106.343 196 108C196 109.657 197.343 111 199 111Z" fill="#473F47"/>
<path d="M209.971 110.288C210.252 108.56 209.078 106.931 207.35 106.651C205.622 106.37 203.993 107.544 203.713 109.272C203.432 111 204.606 112.629 206.334 112.91C208.062 113.19 209.691 112.016 209.971 110.288Z" fill="#473F47"/>
<path d="M185 149.797C185 154.359 183.156 158.735 179.874 161.961C176.592 165.187 172.141 167 167.5 167C162.859 167 158.408 165.187 155.126 161.961C151.844 158.735 150 154.359 150 149.797V148.815C151.204 149.664 152.606 150.199 154.077 150.373C155.547 150.547 157.039 150.353 158.413 149.809C158.708 149.644 159.046 149.569 159.385 149.593C159.674 149.677 159.936 149.831 160.15 150.039C161.262 150.913 162.681 151.319 164.097 151.169C165.513 151.019 166.811 150.324 167.707 149.236C167.869 149.034 168.016 148.821 168.148 148.599C170.417 149.873 173.074 151.313 175.563 150.447C175.89 150.339 176.204 150.193 176.496 150.013V150.013C177.294 149.499 178.029 148.896 178.687 148.217C179.089 149.109 180.294 149.262 181.28 149.147C182.544 148.992 183.767 148.603 184.883 148C184.962 148.596 185.001 149.196 185 149.797V149.797Z" fill="#00BCD4"/>
<path d="M185 147.797C183.88 148.4 182.653 148.789 181.384 148.943C180.396 149.058 179.186 148.943 178.783 148.014C177.913 148.968 176.844 149.728 175.648 150.242C173.151 151.107 170.446 149.72 168.209 148.396C167.487 149.6 166.307 150.475 164.926 150.828C163.546 151.182 162.079 150.984 160.847 150.28C160.616 150.146 160.395 149.997 160.184 149.834C159.97 149.626 159.706 149.473 159.417 149.389C159.077 149.364 158.737 149.44 158.441 149.605C157.062 150.148 155.566 150.342 154.09 150.168C152.615 149.995 151.208 149.459 150 148.612L156.087 139H177.821L185 147.797Z" fill="white"/>
<path opacity="0.18" d="M155.962 139H162L159.223 149.176C158.89 149.152 158.557 149.226 158.268 149.388C156.917 149.92 155.452 150.109 154.006 149.939C152.561 149.769 151.183 149.245 150 148.415L155.962 139Z" fill="white"/>
<path opacity="0.18" d="M185 147.407C183.897 147.983 182.688 148.354 181.438 148.502C180.465 148.611 179.273 148.502 178.876 147.614C178.02 148.526 176.967 149.252 175.789 149.743C173.329 150.57 170.664 149.244 168.46 147.979L167 139H177.928L185 147.407Z" fill="white"/>
<path opacity="0.34" d="M168 148.396C167.261 149.6 166.053 150.475 164.64 150.828C163.227 151.182 161.725 150.984 160.465 150.28C160.228 150.146 160.001 149.997 159.786 149.834C159.566 149.626 159.296 149.473 159 149.389L161.902 139H166.482L168 148.396Z" fill="#00BCD4"/>
<path d="M167 140C173.075 140 178 139.328 178 138.5C178 137.672 173.075 137 167 137C160.925 137 156 137.672 156 138.5C156 139.328 160.925 140 167 140Z" fill="#00BCD4"/>
<path d="M167 140C171.971 140 176 139.552 176 139C176 138.448 171.971 138 167 138C162.029 138 158 138.448 158 139C158 139.552 162.029 140 167 140Z" fill="url(#paint4_linear)"/>
<path opacity="0.13" d="M175 139.344L178.702 147.903C178.702 147.903 179.631 150.009 183 148.385L176.714 139L175 139.344Z" fill="#00BCD4"/>
<path d="M165 140L162.286 129.677L155.528 127L155 127.837L161.357 130.411L163.982 139.961L165 140Z" fill="#00BCD4"/>
<path d="M185 149.797C185 154.359 183.104 158.735 179.728 161.961C176.352 165.187 171.774 167 167 167V167C175.227 166.439 176.333 150.013 176.333 150.013C177.154 149.499 177.91 148.896 178.587 148.217C179 149.109 180.24 149.262 181.253 149.147C182.554 148.992 183.812 148.603 184.96 148C184.96 148.586 185 149.249 185 149.797Z" fill="url(#paint5_linear)"/>
<path d="M171 135.512L170.515 136.85L169.367 140H169L170.243 136.509L170.716 135.197L170.775 135L170.858 135.184L171 135.512Z" fill="white"/>
<path d="M171 135.413L170.359 137C170.263 136.924 170.175 136.839 170.094 136.746L170 136.587L170.625 135H170.813L171 135.413Z" fill="url(#paint6_linear)"/>
<path d="M174.97 136.317C174.971 136.345 174.964 136.372 174.951 136.395C174.938 136.419 174.919 136.438 174.896 136.451C174.686 136.653 174.439 136.805 174.172 136.897C173.905 136.989 173.623 137.02 173.344 136.987C173.157 136.981 172.975 136.923 172.813 136.82C172.652 136.717 172.517 136.572 172.42 136.397C172.256 136.529 172.064 136.613 171.862 136.644C171.659 136.674 171.454 136.649 171.262 136.572C171.072 136.497 170.9 136.378 170.757 136.223C170.614 136.068 170.505 135.88 170.437 135.673C169.99 135.821 169.516 135.849 169.057 135.754C168.829 135.696 168.628 135.55 168.492 135.343C168.356 135.135 168.294 134.881 168.318 134.628C168.174 134.66 168.024 134.654 167.883 134.609C167.741 134.565 167.612 134.484 167.505 134.373C167.296 134.132 167.32 133.89 167.246 133.595C167.252 133.58 167.255 133.565 167.255 133.548C167.255 133.532 167.252 133.516 167.246 133.502C167.132 133.294 167.049 133.068 167 132.831C166.999 132.546 167.049 132.264 167.148 132C169.033 132.237 170.935 132.272 172.827 132.107H172.987C173.011 132.121 173.032 132.14 173.049 132.163C173.066 132.186 173.079 132.213 173.086 132.241L173.64 133.421C174.071 134.333 174.502 135.244 174.946 136.102C174.958 136.196 175.044 136.277 174.97 136.317Z" fill="white"/>
<path d="M173 132.071L167.758 132.911L167.253 133C167.135 132.862 167.05 132.711 167 132.554C166.999 132.364 167.051 132.176 167.152 132C169.085 132.158 171.035 132.181 172.975 132.071H173Z" fill="#00BCD4"/>
<path d="M168.001 134.69L172.829 132H173L170.269 135.881C170.269 135.881 167.961 136.557 168.001 134.69Z" fill="#00BCD4"/>
<path d="M173 136.464L173.444 132L175 136.38C174.737 136.762 174.383 136.983 174.011 136.999C173.64 137.015 173.278 136.823 173 136.464V136.464Z" fill="#00BCD4"/>
<path d="M229.448 169.624C229.007 172.145 228.344 174.872 226.331 176.475C224.019 178.323 220.745 178.117 217.797 177.768C213.533 177.405 209.292 176.81 205.093 175.984C199.43 174.756 194.182 172.106 188.727 170.038C187.583 169.57 186.406 169.185 185.206 168.888C180.011 167.672 174.256 169.224 169.242 167.298C168.481 167.063 167.776 166.675 167.172 166.157C166.569 165.638 166.08 165.001 165.735 164.286C165.603 163.728 165.388 163.192 165.099 162.696C164.449 161.804 162.878 161.403 163.008 160.292C163.053 160.025 163.182 159.779 163.375 159.589C163.569 159.399 163.817 159.274 164.086 159.232C164.624 159.149 165.173 159.185 165.696 159.335L172.477 160.628C173.349 160.86 174.26 160.908 175.153 160.77C175.595 160.689 176 160.472 176.312 160.149C176.625 159.827 176.828 159.416 176.893 158.973C176.893 158.443 176.685 157.939 176.672 157.396C176.659 156.854 177.088 156.259 177.608 156.388C177.822 156.459 178.008 156.595 178.14 156.776C178.848 157.586 179.607 158.35 180.413 159.064C182.748 160.911 185.53 162.114 188.48 162.554C193.533 163.459 198.767 163.058 203.872 163.523L219.836 164.984C220.083 165.042 220.339 165.047 220.588 164.998C220.837 164.949 221.072 164.847 221.278 164.7C221.549 164.37 221.68 163.948 221.642 163.523C221.72 159.646 220.057 156.052 219.044 152.355C218.031 148.659 217.654 144.445 220.096 141.33C221.979 138.926 226.669 136.444 229.188 139.236C231.708 142.028 230.864 150.171 230.864 153.57C230.88 158.953 230.406 164.327 229.448 169.624V169.624Z" fill="#FFB79C"/>
<path d="M248 100.673C245.132 98.6198 241.83 97.2281 238.34 96.6014C234.85 95.9747 231.261 96.129 227.84 97.0529C223.406 98.3275 219.426 100.622 214.875 101.705C210.584 102.738 205.722 100.826 201.664 99.513C196.344 97.9667 191.193 95.9043 186.288 93.3563C184.317 92.2346 182.282 90.9089 180 90.9982C187.26 90.7177 194.564 90.6625 201.91 90.8324C202.964 90.9041 204.023 90.7875 205.035 90.4883C205.408 90.366 205.752 90.1709 206.046 89.9147C207.174 88.9587 207.343 87.3653 207.939 85.9887C208.246 85.2299 208.661 84.5176 209.171 83.8727C210.62 82.1142 212.614 80.8698 214.849 80.3291C217.918 79.6867 221.114 79.9893 224.002 81.1959C226.623 82.1276 228.887 83.8327 230.485 86.0779C230.82 86.5483 231.094 87.0578 231.301 87.5948C231.898 88.9969 232.066 91.559 233.389 92.5023C233.657 92.5718 233.921 92.6569 234.18 92.7572C236.811 93.4455 243.41 95.3958 248 100.673Z" fill="#00BCD4"/>
<path opacity="0.51" d="M234 92.7975C231.356 93.5646 228.604 93.9222 225.845 93.8573C220.629 94.2045 215.388 93.9172 210.244 93.0018C208.645 92.6571 205.367 92.2868 205 90.6269C205.377 90.5044 205.725 90.309 206.023 90.0523C207.163 89.0946 207.334 87.4985 207.937 86.1195C208.268 85.3557 208.709 84.642 209.248 83.9999C210.952 84.3958 212.578 85.0342 214.256 85.4811C218.726 86.6558 223.433 86.4898 228.074 86.3111L230.854 86.2089C231.193 86.6801 231.47 87.1905 231.679 87.7284C232.283 89.1329 232.453 91.6994 233.79 92.6443C233.855 92.7013 233.926 92.7526 234 92.7975V92.7975Z" fill="white"/>
<defs>
<linearGradient id="paint0_linear" x1="116.083" y1="-44.8796" x2="249.369" y2="704.927" gradientUnits="userSpaceOnUse">
<stop offset="0.01"/>
<stop offset="0.13" stop-opacity="0.69"/>
<stop offset="0.25" stop-opacity="0.32"/>
<stop offset="1" stop-opacity="0"/>
</linearGradient>
<linearGradient id="paint1_linear" x1="12756.1" y1="14420.2" x2="22052.4" y2="11008.8" gradientUnits="userSpaceOnUse">
<stop offset="0.01"/>
<stop offset="0.13" stop-opacity="0.69"/>
<stop offset="0.25" stop-opacity="0.32"/>
<stop offset="1" stop-opacity="0"/>
</linearGradient>
<linearGradient id="paint2_linear" x1="20442.5" y1="7875.37" x2="20492.9" y2="3579.93" gradientUnits="userSpaceOnUse">
<stop offset="0.01"/>
<stop offset="0.13" stop-opacity="0.69"/>
<stop offset="0.25" stop-opacity="0.32"/>
<stop offset="1" stop-opacity="0"/>
</linearGradient>
<linearGradient id="paint3_linear" x1="14691.8" y1="3647.52" x2="16391.3" y2="-1131.03" gradientUnits="userSpaceOnUse">
<stop offset="0.01"/>
<stop offset="0.13" stop-opacity="0.69"/>
<stop offset="0.25" stop-opacity="0.32"/>
<stop offset="1" stop-opacity="0"/>
</linearGradient>
<linearGradient id="paint4_linear" x1="4040.15" y1="-180.391" x2="4040.39" y2="-139.782" gradientUnits="userSpaceOnUse">
<stop offset="0.01"/>
<stop offset="0.13" stop-opacity="0.69"/>
<stop offset="0.25" stop-opacity="0.32"/>
<stop offset="1" stop-opacity="0"/>
</linearGradient>
<linearGradient id="paint5_linear" x1="4731.62" y1="3136.13" x2="3575.47" y2="3314.8" gradientUnits="userSpaceOnUse">
<stop offset="0.01"/>
<stop offset="0.13" stop-opacity="0.69"/>
<stop offset="0.25" stop-opacity="0.32"/>
<stop offset="1" stop-opacity="0"/>
</linearGradient>
<linearGradient id="paint6_linear" x1="393.61" y1="494.32" x2="391.366" y2="485.858" gradientUnits="userSpaceOnUse">
<stop offset="0.01"/>
<stop offset="0.13" stop-opacity="0.69"/>
<stop offset="0.25" stop-opacity="0.32"/>
<stop offset="1" stop-opacity="0"/>
</linearGradient>
</defs>
</svg>
